<svg xmlns="http://www.w3.org/2000/svg" viewBox="0 0 32 32">
  <!-- Transparent background so the icon blends with the browser tab. -->
  <!-- Envelope body -->
  <rect x="5" y="10" width="22" height="15" rx="2" fill="none" stroke="#e8a020" stroke-width="1.8"/>
  <!-- Envelope flap -->
  <path d="M5 10 L16 19 L27 10" fill="none" stroke="#e8a020" stroke-width="1.8" stroke-linejoin="round"/>
  <!-- Lock body + keyhole punched through via even-odd fill -->
  <path
    fill="#e8a020"
    fill-rule="evenodd"
    d="M13.7 15 h5.6 a1.2 1.2 0 0 1 1.2 1.2 v4.6 a1.2 1.2 0 0 1 -1.2 1.2 h-5.6 a1.2 1.2 0 0 1 -1.2 -1.2 v-4.6 a1.2 1.2 0 0 1 1.2 -1.2 z
       M16 17.1 a1.1 1.1 0 1 0 0.55 2.05 l-0.25 1.05 h1.4 l-0.25 -1.05 A1.1 1.1 0 0 0 16 17.1 z"
  />
  <!-- Lock shackle -->
  <path d="M14.5 15 V13 A1.5 1.5 0 0 1 17.5 13 V15" fill="none" stroke="#e8a020" stroke-width="1.5" stroke-linecap="round"/>
</svg>
